/* XPM */
static char *_b7226d2c5e8444eda373f1d7b155431YDpL2SyyQzw8Hlmk[] = {
/* columns rows colors chars-per-pixel */
"32 32 219 2 ",
"   c #1B1717",
".  c #1B0909",
"X  c #2C0303",
"o  c #330707",
"O  c #241717",
"+  c #3C1515",
"@  c #3E1A1A",
"#  c #3D003D",
"$  c #3F113F",
"%  c #262727",
"&  c #372828",
"*  c #3B3D3D",
"=  c #37363A",
"-  c #4C0000",
";  c #560101",
":  c #590303",
">  c #431919",
",  c #561D1B",
"<  c #640000",
"1  c #680000",
"2  c #750000",
"3  c #7B0000",
"4  c #751817",
"5  c #6D1213",
"6  c #493434",
"7  c #4C3A3A",
"8  c #453538",
"9  c #523E3E",
"0  c #5A3E3E",
"q  c #6B3D3D",
"w  c #6C2929",
"e  c #440144",
"r  c #440A44",
"t  c #460049",
"y  c #4C004C",
"u  c #4B0D4C",
"i  c #4B144B",
"p  c #441844",
"a  c #4C0254",
"s  c #520152",
"d  c #520C52",
"f  c #560058",
"g  c #5B005C",
"h  c #590D5C",
"j  c #531453",
"k  c #551B55",
"l  c #591F59",
"z  c #581758",
"x  c #472747",
"c  c #552255",
"v  c #5B235B",
"b  c #5D2E5E",
"n  c #522952",
"m  c #5A365A",
"M  c #493849",
"N  c #6C335D",
"B  c #5C0663",
"V  c #591760",
"C  c #640165",
"Z  c #6A036C",
"A  c #640768",
"S  c #681A6A",
"D  c #730176",
"F  c #691872",
"G  c #642C63",
"H  c #6B3D6D",
"J  c #643964",
"K  c #753F6B",
"L  c #752E76",
"P  c #723D73",
"I  c #6F3E71",
"U  c #3B4040",
"Y  c #444B4B",
"T  c #484549",
"R  c #584848",
"E  c #5A475A",
"W  c #4A5151",
"Q  c #5A5658",
"!  c #695B5B",
"~  c #785757",
"^  c #774747",
"/  c #69476A",
"(  c #665667",
")  c #76576B",
"_  c #6A4E7B",
"`  c #744875",
"'  c #775878",
"]  c #774566",
"[  c #666464",
"{  c #7B6666",
"}  c #6D6871",
"|  c #77637A",
" . c #6B7172",
".. c #767474",
"X. c #840101",
"o. c #8A0000",
"O. c #8A0C0C",
"+. c #910000",
"@. c #8C1414",
"#. c #AA0000",
"$. c #B80707",
"%. c #B51212",
"&. c #BB1212",
"*. c #B51218",
"=. c #A01919",
"-. c #C40E0E",
";. c #C61314",
":. c #D01414",
">. c #D31E0B",
",. c #C12209",
"<. c #9B591E",
"1. c #845B18",
"2. c #A44800",
"3. c #A65D1F",
"4. c #A9550B",
"5. c #A86216",
"6. c #865327",
"7. c #867B3E",
"8. c #A66C2E",
"9. c #C1640D",
"0. c #873E75",
"q. c #814D4D",
"w. c #854543",
"e. c #804F51",
"r. c #835353",
"t. c #8B5A5A",
"y. c #895557",
"u. c #9D5657",
"i. c #85514F",
"p. c #A55859",
"a. c #B75A5A",
"s. c #987456",
"d. c #A26D44",
"f. c #A67B54",
"g. c #93477F",
"h. c #846263",
"j. c #8A6363",
"k. c #8E6C6C",
"l. c #8B6668",
"z. c #966565",
"x. c #946C6C",
"c. c #9B6D6D",
"v. c #986565",
"b. c #867A7A",
"n. c #9C7474",
"m. c #987978",
"M. c #90726F",
"N. c #A36464",
"B. c #B46868",
"V. c #A27473",
"C. c #AA7B7A",
"Z. c #B77B7B",
"A. c #CD6B6B",
"S. c #A38E0B",
"D. c #AEA707",
"F. c #C58336",
"G. c #A7907C",
"H. c #A79248",
"J. c #D09152",
"K. c #7E5F80",
"L. c #835E81",
"P. c #866884",
"I. c #877B8B",
"U. c #8B7D8D",
"Y. c #8B778C",
"T. c #8C6E91",
"R. c #927A90",
"E. c #897092",
"W. c #788282",
"Q. c #8A888A",
"!. c #948282",
"~. c #9A8C8B",
"^. c #988587",
"/. c #89908D",
"(. c #9C9595",
"). c #9A9399",
"_. c #959999",
"`. c #9B9999",
"'. c #979796",
"]. c #918D92",
"[. c #A78787",
"{. c #BD8682",
"}. c #AE9989",
"|. c #A59586",
" X c #A49393",
".X c #A39999",
"XX c #AC9C9C",
"oX c #A89196",
"OX c #B29B95",
"+X c #9BA39F",
"@X c #ACA19B",
"#X c #AFAD9D",
"$X c #B4A293",
"%X c #989AA2",
"&X c #AF9EA2",
"*X c #9DA5A4",
"=X c #A2A4A4",
"-X c #ABADAD",
";X c #B6ABA6",
":X c #B6A8A7",
">X c #AEB0A6",
",X c #B7B4AA",
"<X c #A4A7B8",
"1X c #AAB1B1",
"2X c #B2B4B4",
"3X c #B5BABA",
"4X c #BABCBC",
"5X c #B4B7B9",
"6X c #B1AEB5",
"7X c #C39086",
"8X c #C0ABAB",
"9X c #BAC6BD",
"0X c #BABFC1",
"qX c #B7BDC0",
"wX c #BDC3C3",
"eX c #BDCCC8",
"rX c #C0CAC5",
"tX c #C2C8C6",
"yX c #C7D2CB",
/* pixels */
"8 7 6 7 7 7 8 Y 6 6 7 7 7 M 9 7 7 7 8 U 9 9 9 7 7 6 6 8 7 8 8 = ",
"8.>.;.&.&.-.w Q :.%.&.%.%.;.&.%.&.-.w W :.:.;.;.&.&.-.%.%.*.,.1.",
"D.s./.(..X+X_._.`.`.`.`.'.`.'.'.`.'._._.'.`.`.`.'.'._..X_.Q.H.S.",
"4 6.k.N ! r.r.r.r.q.r.r.r.i.r.r.r.r.i.r.r.r.e.y.t.u.a.! M Q.^ , ",
"5 u.t.^.! M.:X~.:X;X&X@X@X@X;X;X;X;X-X&XXX&X;X.XP.:X}.! C.p.0 o ",
"6 Q.b.Q.9X/./.k ` 2XyXtXtX6XY.Y.P.n.J.8XwX9X%XH f *X=X9X'.! [ O ",
"#.B.!.k.2X_.Q E t s ` Y.>X2Xk e a w 8.$XE.P s y E | ].rX..{ h.3 ",
"o.N.Z.^./.S B E T r g f d ).T.t a K.&XV f g r R E g F `.{ c.h.1 ",
"+.N.V.&X+Xp g A l x # t l `.` y y ` .Xl t e 8 i g Z F /.b.c.j.< ",
": j.V.8XI.Q n A C C y r v U.I y y P Q.c r y f s A I Q  .!.n.h.- ",
"& b.n.&XA i M M b S B y e v v s y v c # y f z K ) E $ u ^.V. .  ",
"=.A.[.OXA s e # r Z g s s y y j j y y y y g D h d e # d ^.V.j.o ",
"O.B.G.[.} j d r e s g s s d J L L J d s f C A d r r p } ^.V.j.X ",
"@.p.m.K j J b n x r s C f u L D D L d g Z g j x p p n h g.7Xz.X ",
"4 p.k.N a f s y y s y s s u L Z D L d f f f y e r y s B 0.7Xl.X ",
"9 b.k.) t y s j c j s k j s ( ( / ( s j k y i c i e s f ) C. .O ",
"#.B.n. XU.` / m d y v v y s d m m d s y l c y u m / K.E.].c.h.2 ",
"X.N.n.oXP.b d y y v l s b j s y s y j b s v c t y h G l.b.) ^ : ",
"+.N.n.oXj y s s v v y / / s s s s s s / / y v v s f s j b.h.~ < ",
"- j.V.&XI.e t l v y s v y s y s y s s y v s y v k s y I.XXx.j.- ",
"& /.Z.8XrXP.' _ e y T.F y s j s d j s s S T.a t _ ' P.4XXXV...  ",
"@.A.C.:X4X4X#Xd.] R.,Xt.e y z s s z y e y.,X^.] d.#XwXtX:XC.z.X ",
"O.a.V.oX4X5X}.<.5.9.2.6.b.T.G y y G Y.P.6.2.9.4.<.}.0XtX8XZ.x.X ",
"O.a.x.oX-X5XG.6.3.4.f.8.>X` y s s y P >X8.f.4.3.6.G.5X4XOXC.j.X ",
"4 p.M.oX1X2X|.%Xf.s.<X) j t y s s y t j ) <Xs.f.%X|.3X2XXXn.h.X ",
"6 Q.z.m.rX0X0X4XXX}./ t e v ` s y ` v e e / }.@X0X0X3XeXm.c...O ",
"#.p.-Xq.y.^.XX5X0X0X2X].' *XG y y G `.L.Q.1XqXwX5XXX~.t.^ -X~ < ",
"o.; ! =X(.c.t.^ k..X5XtXrX4X) t y ) 4XeXtX3X.Xk.^ y.c.(..X! ; < ",
"o.3 : , ~ b.=X=XG.e.^ k. X-XeX| | eX-X(.M.r.y.C.@X=Xb.q : ; 1 o.",
"X.X.3 3 < < ; q k./..Xm.v.^ t.~.~.t.q.v.M. XQ...Q : ; 1 3 O.3 X.",
"+ @ + + > > > o X   = [ W.'.!.z.x.!.(...W & o . % + @ > + + + + ",
"Y W Y Y W W W Y Y U % %   % *  . .U %     % = * U Y W W Y Y Y W "
};
