/* XPM */
static char *_a9727146d35455ad81fe3b3bf024ca910bWAXkOBfK9C9BC[] = {
/* columns rows colors chars-per-pixel */
"32 32 256 2 ",
"   c black",
".  c #010101",
"X  c #020202",
"o  c gray1",
"O  c #040404",
"+  c gray2",
"@  c #060606",
"#  c #070707",
"$  c gray3",
"%  c #090909",
"&  c gray4",
"*  c #0B0B0B",
"=  c #0C0C0C",
"-  c gray5",
";  c #0E0E0E",
":  c gray6",
">  c #101010",
",  c #111111",
"<  c gray7",
"1  c #131313",
"2  c gray8",
"3  c #151515",
"4  c #161616",
"5  c gray9",
"6  c #181818",
"7  c #191919",
"8  c gray10",
"9  c #1B1B1B",
"0  c gray11",
"q  c #1D1D1D",
"w  c #1E1E1E",
"e  c gray12",
"r  c #202020",
"t  c gray13",
"y  c #222222",
"u  c #232323",
"i  c gray14",
"p  c #252525",
"a  c gray15",
"s  c #272727",
"d  c #282828",
"f  c gray16",
"g  c #2A2A2A",
"h  c gray17",
"j  c #2C2C2C",
"k  c #2D2D2D",
"l  c gray18",
"z  c #2F2F2F",
"x  c gray19",
"c  c #313131",
"v  c #323232",
"b  c gray20",
"n  c #343434",
"m  c #353535",
"M  c gray21",
"N  c #373737",
"B  c gray22",
"V  c #393939",
"C  c #3A3A3A",
"Z  c gray23",
"A  c #3C3C3C",
"S  c gray24",
"D  c #3E3E3E",
"F  c #3F3F3F",
"G  c gray25",
"H  c #414141",
"J  c gray26",
"K  c #434343",
"L  c #444444",
"P  c gray27",
"I  c #464646",
"U  c gray28",
"Y  c #484848",
"T  c #494949",
"R  c gray29",
"E  c #4B4B4B",
"W  c #4C4C4C",
"Q  c gray30",
"!  c #4E4E4E",
"~  c gray31",
"^  c #505050",
"/  c #515151",
"(  c gray32",
")  c #535353",
"_  c gray33",
"`  c #555555",
"'  c #565656",
"]  c gray34",
"[  c #585858",
"{  c gray35",
"}  c #5A5A5A",
"|  c #5B5B5B",
" . c gray36",
".. c #5D5D5D",
"X. c gray37",
"o. c #5F5F5F",
"O. c #606060",
"+. c gray38",
"@. c #626262",
"#. c gray39",
"$. c #646464",
"%. c #656565",
"&. c gray40",
"*. c #676767",
"=. c #686868",
"-. c DimGray",
";. c #6A6A6A",
":. c gray42",
">. c #6C6C6C",
",. c #6D6D6D",
"<. c gray43",
"1. c #6F6F6F",
"2. c gray44",
"3. c #717171",
"4. c #727272",
"5. c gray45",
"6. c #747474",
"7. c gray46",
"8. c #767676",
"9. c #777777",
"0. c gray47",
"q. c #797979",
"w. c gray48",
"e. c #7B7B7B",
"r. c #7C7C7C",
"t. c gray49",
"y. c #7E7E7E",
"u. c gray50",
"i. c #808080",
"p. c #818181",
"a. c gray51",
"s. c #838383",
"d. c #848484",
"f. c gray52",
"g. c #868686",
"h. c gray53",
"j. c #888888",
"k. c #898989",
"l. c gray54",
"z. c #8B8B8B",
"x. c gray55",
"c. c #8D8D8D",
"v. c #8E8E8E",
"b. c gray56",
"n. c #909090",
"m. c gray57",
"M. c #929292",
"N. c #939393",
"B. c gray58",
"V. c #959595",
"C. c gray59",
"Z. c #979797",
"A. c #989898",
"S. c gray60",
"D. c #9A9A9A",
"F. c #9B9B9B",
"G. c gray61",
"H. c #9D9D9D",
"J. c gray62",
"K. c #9F9F9F",
"L. c #A0A0A0",
"P. c gray63",
"I. c #A2A2A2",
"U. c gray64",
"Y. c #A4A4A4",
"T. c #A5A5A5",
"R. c gray65",
"E. c #A7A7A7",
"W. c gray66",
"Q. c #A9A9A9",
"!. c #AAAAAA",
"~. c gray67",
"^. c #ACACAC",
"/. c gray68",
"(. c #AEAEAE",
"). c #AFAFAF",
"_. c gray69",
"`. c #B1B1B1",
"'. c #B2B2B2",
"]. c gray70",
"[. c #B4B4B4",
"{. c gray71",
"}. c #B6B6B6",
"|. c #B7B7B7",
" X c gray72",
".X c #B9B9B9",
"XX c gray73",
"oX c #BBBBBB",
"OX c #BCBCBC",
"+X c gray74",
"@X c gray",
"#X c gray75",
"$X c #C0C0C0",
"%X c #C1C1C1",
"&X c gray76",
"*X c #C3C3C3",
"=X c gray77",
"-X c #C5C5C5",
";X c #C6C6C6",
":X c gray78",
">X c #C8C8C8",
",X c gray79",
"<X c #CACACA",
"1X c #CBCBCB",
"2X c gray80",
"3X c #CDCDCD",
"4X c #CECECE",
"5X c gray81",
"6X c #D0D0D0",
"7X c gray82",
"8X c #D2D2D2",
"9X c LightGray",
"0X c gray83",
"qX c #D5D5D5",
"wX c gray84",
"eX c #D7D7D7",
"rX c #D8D8D8",
"tX c gray85",
"yX c #DADADA",
"uX c gray86",
"iX c gainsboro",
"pX c #DDDDDD",
"aX c gray87",
"sX c #DFDFDF",
"dX c gray88",
"fX c #E1E1E1",
"gX c #E2E2E2",
"hX c gray89",
"jX c #E4E4E4",
"kX c gray90",
"lX c #E6E6E6",
"zX c #E7E7E7",
"xX c gray91",
"cX c #E9E9E9",
"vX c #EAEAEA",
"bX c gray92",
"nX c #ECECEC",
"mX c gray93",
"MX c #EEEEEE",
"NX c #EFEFEF",
"BX c gray94",
"VX c #F1F1F1",
"CX c gray95",
"ZX c #F3F3F3",
"AX c #F4F4F4",
"SX c gray96",
"DX c #F6F6F6",
"FX c gray97",
"GX c #F8F8F8",
"HX c #F9F9F9",
"JX c gray98",
"KX c #FBFBFB",
"LX c gray99",
"PX c #FDFDFD",
"IX c #FEFEFE",
"UX c white",
/* pixels */
"C Z Z F A +.m.h.k.z.k.g.V.] S 0.i.t.r.0.&.b N V N B M B B B B V ",
"w.0.0.1.F F.kX2X9X0X9X5X8XE -.1XY.R.I.R.p.a | {.`.'.J.s.5.8.5.8.",
"#X+X).i.l F.%XK.P.P.L.L.M.l ] U.m.F.P.l.{ a %.uX|..X:XoX}.}. X{.",
"E.F.S.@.i K.#Xn.R.Z.c.S.v.B M q.T.B.A.f.F a =.<XN.j.z.x.n.Z.M.M.",
"G.S.7.U w g.*XF.Z.M.z.F.a.C k ! Y b x l q d | <XG.m.A.N.D.Z.H.m.",
"X.} G j y ,.$Xm.a.m.S.b.j.U k K m ( *.,.*.I ' Q.h.p.q.;.X.} { { ",
"i a s f n ) @XS.z.m.n.v.j.L t &.%X4X@X#Xv.B G ` P G C x j a p i ",
"P S Z S C I K.T.B.B.l.G.q.T 0 p.9Xm.c.m.4.f c J K l B Z D A D S ",
").~.!.T.` k a.(.N.V.n.B.u. .6 a.=XN.J.I.6.i O.eXe.Q ).XX|. X.X X",
"T.L.W.n.! v o.S.c.h.0.>.O.P 6 7.Q.9.` ~ T y c.;XI <.tX].).`.E.(.",
"G.B.A.f.H n U B b h d p e 5 , P ~ l 0 u u u Y.oXQ :.|.n.N.M.p.x.",
"M.s.C.d.D k d.x.1.#.U z ..a.g.G.{.|.}.H.C ` 2XW.U #. XS.H.Z.f.M.",
"Z.F.A.1.V B -X(.(.].3.J {.tXXX{. X X.XM.k ;.2XC.L ~ N.e.9.t.j.m.",
"] E H d e F '.A.H.B.K G @XY.n.m.k.c.Z.6.s -.1XN.J B f l x x C R ",
"Z T ..o.O.^ }.x.H.c.K n +XU.b.k.f.z.Z.r.a :.:XS.H I E L V c h k ",
"j.5X7X=X).~ [.C.x.J.( k `. Xz.b.f.b.A.3.y :.OXB.N t.}.`.A.A.t.E ",
"Y.|.N.D.B.| `.F.L.S...r v.8XD.n.x.d.S.@.a ,.#XS.v z.T.F.T.^.d.J ",
"U./.B.P.B.! }.A.C.H.} t >.5XG.m.B.G.F.) w 6.$Xj.x g.OXP.C.Y.t.Z ",
"Y.{.F.G.Z.L .XZ.V.V.o.r U }.E.f.w.,.} A f  .>.K B O.q.4.5.3.+.N ",
"Y.(.V.G.S.D Y.E.Z.V.O.w A ' / v r e w r h L D I E C d a s s j M ",
"Y.].M.H.N.z B./.h.Z.o.w N | ' ` ..$.+.#.=.6.M.K.L.U.T.Y.L.Y.d.L ",
"J.].A.Q.6.7 C.(.x.n.@.g y K.qXiXuX8XwX0XiXgXjXfXeXtX7XqX2X5X5.m ",
"m.).D.s.@.y b.E.V.C.+.k 7 A.4XQ.^.~._.].(._.W.n.b.G.b.A.J.G...m ",
"<.v.6.X.D d r.I.B.l.@.z < y.yXn.c.c.z.M.c.J.m.n.M.b.b.z.C.C.O.c ",
"U k d m l V ~ ' ^ ! Y z 1 ;.wXG.H.D.C.b.v.N.Z.m.B.m.b.x.n.s...k ",
"} i.u.*.F I b 6 5 7 8 t 9 ~ =.! ^ ( w.m.j.u.f.p.k.z.c.l.f.x.| k ",
"u.8X%X0X<X[.b.s.r.8.1.*.X.] T F A m x S L U H G G A Z A A S x N ",
"s.=XA.F.U.`.@X$X#X-X+XXXXXoX@X}.$.U L P v a k x s u i i i d V Q ",
"a.+XF.v.V.B.C.l.d.l.j.N.G.J.'.Z.H b l.,X/.V.>.! j.b.c.x.g.9.#.! ",
"4.=.T Q ^ ( ( ~ / Q / ( ^ Q ! E Z w d.}.).[.a.w.:X[..X'.'.[.b.N ",
"R c d p p i u u p y u y y u u u d a U ~ L S Z <.q.,.3.1.2.6.^ V ",
"T Y J J J J A Z A Z Z Z Z Z Z Z A C G Y Z b n A M s f f f f h Z "
};
