/* XPM */
static char *_151000126e943aece1d2293ac3ed154ZlaQw0KxFIlx3LGT[] = {
/* columns rows colors chars-per-pixel */
"64 64 242 2 ",
"   c #2C2C3D",
".  c #1C2234",
"X  c #2B3344",
"o  c #2B3648",
"O  c #373C4B",
"+  c #343C52",
"@  c #3C3F55",
"#  c #2B3347",
"$  c #1E2E45",
"%  c #433D4B",
"&  c #36424F",
"*  c #3B4455",
"=  c #3C4A5B",
"-  c #384558",
";  c #2E4058",
":  c #3D4C62",
">  c #3F5062",
",  c #434453",
"<  c #424A56",
"1  c #444C5C",
"2  c #4B4D5C",
"3  c #484758",
"4  c #544D5D",
"5  c #47525E",
"6  c #43414C",
"7  c #444D63",
"8  c #4B4E62",
"9  c #494E69",
"0  c #455363",
"q  c #4B5364",
"w  c #46556A",
"e  c #4C556B",
"r  c #4D5A6C",
"t  c #4B5968",
"y  c #525464",
"u  c #54566A",
"i  c #525B6C",
"p  c #5B5C6C",
"a  c #5C5765",
"s  c #4D5B73",
"d  c #495975",
"f  c #545E73",
"g  c #595E72",
"h  c #5A5E79",
"j  c #504F61",
"k  c #625D6B",
"l  c #675B6A",
"z  c #635F73",
"x  c #57616E",
"c  c #546274",
"v  c #5B6475",
"b  c #55637A",
"n  c #5C657A",
"m  c #57687A",
"M  c #5C6B7C",
"N  c #596977",
"B  c #4F607C",
"V  c #64616E",
"C  c #646474",
"Z  c #6A6673",
"A  c #646876",
"S  c #63667A",
"D  c #636B7C",
"F  c #6B6C7B",
"G  c #6B687A",
"H  c #736D7C",
"J  c #756A79",
"K  c #6E717E",
"L  c #66727E",
"P  c #73717E",
"I  c #7B727E",
"U  c #5D6C83",
"Y  c #596885",
"T  c #5F7186",
"R  c #4F6383",
"E  c #646D82",
"W  c #6A6E82",
"Q  c #636D88",
"!  c #716E81",
"~  c #647283",
"^  c #6B7384",
"/  c #65748A",
"(  c #6B758B",
")  c #6C7A8C",
"_  c #697A8A",
"`  c #737484",
"'  c #7B7584",
"]  c #757986",
"[  c #7C7985",
"{  c #72768B",
"}  c #737B8C",
"|  c #7B7C8C",
" . c #787789",
".. c #6B7791",
"X. c #6C7C93",
"o. c #6D7C99",
"O. c #657692",
"+. c #737D92",
"@. c #7B7E91",
"#. c #717E99",
"$. c #837A85",
"%. c #827C8B",
"&. c #887C89",
"*. c #837E91",
"=. c #75818D",
"-. c #7B808D",
";. c #6D8196",
":. c #748294",
">. c #7B8394",
",. c #74849B",
"<. c #7B859B",
"1. c #77899E",
"2. c #7C8A9C",
"3. c #7C8A95",
"4. c #7585A0",
"5. c #7689A2",
"6. c #7C8CA3",
"7. c #7C8BA7",
"8. c #7E91A4",
"9. c #7D91AC",
"0. c #7D94B2",
"q. c #84828F",
"w. c #8B838E",
"e. c #838394",
"r. c #8A8593",
"t. c #828996",
"y. c #8C8995",
"u. c #82869A",
"i. c #848B9C",
"p. c #8B8C9B",
"a. c #8A8699",
"s. c #938A95",
"d. c #9A8B96",
"f. c #928D9B",
"g. c #9B8D9A",
"h. c #928696",
"j. c #85919D",
"k. c #8B919D",
"l. c #94929D",
"z. c #9C929D",
"x. c #9F9A9E",
"c. c #A3949D",
"v. c #848EA2",
"b. c #8B8EA2",
"n. c #8B8FAB",
"m. c #918EA0",
"M. c #8392A4",
"N. c #8B93A4",
"B. c #8D99A5",
"V. c #8393AA",
"C. c #8B95AA",
"Z. c #8698AB",
"A. c #8C9AAC",
"S. c #9394A3",
"D. c #9B94A3",
"F. c #949AA6",
"G. c #9C99A5",
"H. c #9296AA",
"J. c #949BAC",
"K. c #9B9BAA",
"L. c #9997AC",
"P. c #8495B2",
"I. c #8C9CB3",
"U. c #8D9EB9",
"Y. c #8798B2",
"T. c #939DB2",
"R. c #9A9EB2",
"E. c #939EB8",
"W. c #A495A2",
"Q. c #A49AA5",
"!. c #AB9CA6",
"~. c #A49DAB",
"^. c #AB9EAA",
"/. c #A796A6",
"(. c #A89EAF",
"). c #94A0AE",
"_. c #9DA1AD",
"`. c #8FA0B4",
"'. c #8CA0BB",
"]. c #94A2B4",
"[. c #9BA3B4",
"{. c #94A3BA",
"}. c #9CA4BA",
"|. c #9CA9BB",
" X c #99A9B8",
".X c #A5A2AD",
"XX c #ABA2AD",
"oX c #A4A2A7",
"OX c #B1A5AE",
"+X c #B5A8AF",
"@X c #A4A4B2",
"#X c #ACA5B3",
"$X c #A5AAB6",
"%X c #ABA9B5",
"&X c #A2A5B9",
"*X c #ABA6B9",
"=X c #A4ABBB",
"-X c #ACACBB",
";X c #B3A6B2",
":X c #B3AAB4",
">X c #B9ADB5",
",X c #B4ADBB",
"<X c #BAADBA",
"1X c #ADB2BF",
"2X c #B4B3BD",
"3X c #BBB2BD",
"4X c #BBB0B6",
"5X c #C1B4BD",
"6X c #9CABC1",
"7X c #9CB1C6",
"8X c #A4ADC1",
"9X c #ABAEC2",
"0X c #ABAFC8",
"qX c #A4B2C4",
"wX c #ACB3C4",
"eX c #A4B5CB",
"rX c #ABB5CB",
"tX c #ACBACA",
"yX c #AAB9C9",
"uX c #B4B4C3",
"iX c #BBB5C3",
"pX c #BCB9C4",
"aX c #B3BBCC",
"sX c #BCBCCA",
"dX c #B5B7C7",
"fX c #B5BDD3",
"gX c #BCBAD0",
"hX c #B2B5C9",
"jX c #C2BBC4",
"kX c #C2BECB",
"lX c #C5B9C6",
"zX c #C2BFD0",
"xX c #BDC2CC",
"cX c #BBC2D4",
"vX c #B8C5D8",
"bX c #C3C1CD",
"nX c #C9C2CB",
"mX c #C4C4D2",
"MX c #C9C8D7",
"NX c #DCD2DC",
"BX c #CAD0DE",
"VX c #DDDBE9",
/* pixels */
"` S.-XzXD.4 Z l a , , ^ :.M.1.8.B.|.$X5 = L C.R.C.H.v.C.n.8.Y.A.a.y.l.pXdX] x 2.1.m ;.{.;.c 8.j.qXN ].c m ;.;.Z.Z.> W R.r.! /./.",
"S.@XzXf.3 (.W.% O 4 u >.i.1.8.V.).=X3.* x k.J. .>.<.v.n.V.{.7.A.-.$.%XxXt.D :.M.c ;.Z.X.m 2.2.7X=.3.B.= ;.3.1.Z.t x J.H.J h.iX! ",
"G.uX*X3 h.(.4 % O ! S >.j.1.Z.Z.1X=.& x j.t.N.qXH.8Xv.Y A.O.{.,.K -X-X` D i.2.D / 2.;.U :.8.yX=.N  X:.> 3.8.Z.=.- _ @XK.! <X&.J ",
"~.iXe.%.9XL.3   a | W ( B.B.B.B.B.L < ] j.k.F.}.E.R.Q |./ $ ; s k.$X] v M.<.c ~ Z.;./ 1.8.7X3.N j.].N N 3.B.8.> L 8.J.| *.<Xl *.",
"iXD.e.nXdXu.z # f E >.>.N.F.N.[.1XK L 3.} K.R.N.hX( c f + b T Y.[.( ^ M.i.Q / 8.1.:.8.1.7X=.c =.[.j.= _ 3.j.L t i.H.S.z iX$.$./.",
"XXs.%XkXdX1 + Y S f C.p.i.F._.xX_.5 N k.i.N.T.=X+.. ; : ;.,.{.'.+.} C.8.m :.A.1./ `.2. X:.c T M. X=.5 3.B.3.5 =.N.F. .S.D.! (.*X",
"w.oXnXuXj @ - Q v.h N.N.k._.2X.X< 2 ] k.N.J.T.i.+ { ..M.9.V.{.,.;.V.8._ X.2.7.6.Y.,. X:.M / :.A.F.L L 3.j.L N B.J.t. .-X' h.*X(.",
"Q.pXbX| @ @ ..v.6XY =.k._.$X4XV F J.k.^ i.J.|.} s 2.,.2.E.Y.,.X.7.`.1./ 7.V.1.8.Z. X:.U ~ =.B.[.8.5 3.3.=.x B.k.).K *X' ' uX/.*.",
"2XnXm.y , Q 4.E.Q e >.L.$X.Xw.oXmXwXA F i.$XJ.) M X.M.V.8.1.7.V.Y.1.;.,.V.V.8.Z.6X/ L A._ i.M. X= =.3.3.A i.k._.A oX[ F -X%Xq..X",
"kXK.p 1 h @.n.v.9 E i.J.l.y.c.3X2Xy C k.N.B.N.i.~ :.M.6.1.5.9.V.Y.O.1.0.;.,.{.|./ M j.>.) i.8X~ t 3.j.L =.t.S.e.p.q.P l.f.y.G.$X",
"$XA O u ( v.T.+.9 u.L..Xx.x.jX3Xk 2 e.N.R.).[.}.D X.6.2.1.V.Y.Z.5.;.1.5.8. X].) ~ >.A.} } &Xv.7 ) j.) ^ t.k.a.q.y.H | D..Xe.e.uX",
"S 1 9 Q *.v.8X{ g n.S.K._.$X:XI 3 r.S.t.J.[.]._ M _ 2.6.7.V.V.9.T 8.9.8.I.A.:.L M.M.3.D C.}.t N A.A.) N.F.=X*Xe.H S.@X.XsXr.F.dX",
"+ w ( <.v.R.9XS G a.p.y.x.$Xw.6 | m.e.S._.[.M.t ) :.8.V.9.8.7.6.;.5.8.8.B.=.~ B.N.` ] D }.D r M.M.8.A.3.b.-XgXk z Q.&X*X@.W -X` ",
"s / 9.<.N.wXL.2 ` y..XG.oX2Xl.P y.a.r.p.N.B.i r :.1.8.8.8.8.9.Z.8.1.8.8.;.=.i.B.p.j.S. X| ; { A.3.,.N.A.} L.m.4 f.L.*X(.W *Xu., ",
"7.7.V.2.J.dX .4 f.G.:X,XuXbXxXuXdXzXMX1X=X$X} / _ 2.V.,.;.Z.`.Z.T Z. X=.N 3.).l._.wXaXdX1 c v.6.M.6.v.8X{ L.! %.(.D.~.! b.uX@ 9 ",
"V.5.v.C.}.uXG H #XQ.D.%XpXpXpXxXkX-XpXmXwXtXvXm T 8.Z.;.;.Z.{.8.;.`.;.t =.@X_.F.-X=XBX] * 2.C.i.<.M.A.i.! m.G D.D.9Xa.G 9XW q b.",
"V.C.C.R.*XP a :X;X;X~.~.~.*X2X-X2X3X_.pXwXaX) 0 ,.7XeX;.m Z.).`.Y.5.9 S m.D.W.~.oXMX-X= :.C.1.<.V.v.].S J.` q.f.D.$Xj L.u.g v.v.",
"@.J.F.@XF k ;X#X:X:X;X~.@X%X-X-XpXOX2X2XxXA.- T 8.8.eXO.3.8.]. XO.b f u.(.D.W.XX3X%X_.] }.M.: ( <.=X>.] a.F y.S.*X! a.b.n C.#.v.",
"H.S.-XZ k *X^.:XOXOX+X.XXX-X2XiX2XxX2XpXJ.0 c ;.5.I.eXb 2.xX7X;.s r +.L.L./.!.XX;X3X$XxXA.w s V.N. XD J.` | G.#Xa.p b.D g 2.C.V.",
"S.-Xg Z #X:X<X^.XXOXXX.XXX,XiXpX2X3XmX3.t x / V.1.9.m m M. X=.w m _ T.L.L.(.Q..X:X2X=X$XN = 5.V.[.+.i.p.! S.*XG.k a.m.} i.~ ) <.",
"s.k K oXiX;XQ.5X+X>XOXXXOX4X3X3XbXxXy.< i 3._ 6.{.6Xw 2.wXN.i f :.A.}.l.Q.#Xz.OX2X2XxXM = ;.8.V.J.` &Xg a.~.K.z ` J.H.F.A.2.c A.",
"K x l.pX;X;X>X+X+X>X+X+X4X3XnXxXMX).* t 2.M.:./ {.{.Y v.qXn e ~ B.I.F.S.:XoXd.:X#XxXF.& c B.V.E.@.u.` @.(.K.! z H.a.J.N.J.U / 1.",
"V w.G.+X;X4X5Xc.+X+X+X4XpXnXnXbX$X< x _ A.B./ 6.eX,.<.C.}.q W [.B.B.k.G..Xl.x..XoXxX5 * _ ,.V.n.{ *.p *X&Xa.H *.f.u.J.&XA.= 3.t ",
"I I s.OX+XOXOX4X+X+X>X4XbXnXjX2X5 5 ~ 3.7XM _ eXV./ A.Q f E b.H.k.).S.K.x.l.%Xx.$X_.=.j.E / 5.{.u.C p.m.L.z R. .e.L.>.$XN m  X`.",
"l.Z $.x.oX4X+XOX4X4XjXjXjXNX#X2 x =.3.].8.c |.`.w 8. Xw f v.T.C.F.F.F.G.G.G.oX$Xl.).vXB.= ;.T.}.g G R.~.u m.&XW u.u.&Xi.0 ;.M.|.",
"a a q.s.s.oXoX+X%X5XjXnXVXD.6 C L 3.yXZ.c |.Z.w Z. XQ 7 n.H.S.N.j.).).G.G..X.XK.l.$XxXN t 1.6X..a m.L.%.z (. .} b.[.H.8 D 3. X).",
"a P l.x.w.y.y.l..X2X2XMX| O  .` 8. X;.N 8.1.~ Z.;.E o M C.C.R.H.).J.F.S.K.~.K.k.k.yXJ.0 =.B.I.u e.a.*.! m.0X! @.u.&Xi.7 } B.).~ ",
"F y._._.F.l.l.l.$X_.mXK , ` ^ R.`.T > 3.A.;. XN D +.- 2.H.C.2.T.B.N.A.[.R.F.S.F.=XyX~ N 2.].( S S.f.&X@.(.*.! b.b.N.v.u.~ ].N.5 ",
"e.S.L.K.J.K.[.$X1XdXi 2 ^ +.T.T.N ;.8. X1.;.m / |.m n T.>.A.}.i.C.A.C.H.J.R.&X=XwXA.5 _ E.R.h *.p.-XK.F L.{ @.b.H.v.H.J.c [.>.1 ",
"H.[.J.K.J.[.wXwXB.x 1 D i.A.E.<.`.;.Z.8.T T T A.T.w Q +.}.A.I.C.I.E.A.H.&XwXH.D D n N 2.R.v.z L.[.S.^ [ a.i.L.v.*.H.T.( } F.A i ",
"C.H.S.J.[.1XaXB.= * :.M.T.6X..<.8.8. X;.T M Z. X>.0 2.A.T.M.A.C.V.A.E.0XhXT.E + 0 c i.T.E.z @.R.G.K ` S.| u.[.n...T.b.S N.@.y D ",
"R.R.C.T.[.|.B.- N >.3.M.<./ v.A.8.`.;.m :.B.=.V.r ~ :.C.M.A.,.I.U.I.}.E.#.e E H.C.M.v.E.b.h L.J.p.] >.^ i.H.b.E *.R.@.W N.g q u.",
"H.J.[.H.qXT.7 f :.V.t.^ 2.B.2.>.W v S v.n  .t.S.*.{ u.@.C.T...E.Y.V.V.Y e #.v.A.Y.n.|.T.u v.n.9X*.u.@.i.F.<.| N.J.<.+.N.E n { <.",
"N.p.wXqX>.r c 5.V.A.:._ M.F.t.$X>.{ 9X| | H.S.dXW @.T.H.rX4.h 4.5.,.,.X.1.{.o.v.V.n.0XQ { E.E.H.(  .>.i.i.k.i.N.i.} { >.n E u.C.",
"S.9XK._ r n :.) :.:._ j.N.).cX1Xv S.@X .f.a.*XS.S S.8X0XvXY d #.E.Y.I.6X8XvXQ Q H.rXv.u *.n.0Xn.^ j.-XdXwXwX=XF.S.u.<.W n @.C.v.",
"wXi.i t D ( :.>.i.2.N.J._.uX-XF F ,X[ S.G.S.pX` a.&X8XgX&X7 Y 7.U.X.7.V.9.{.Q b 6X6Xf +.0X}.E.v.K.-XuX1X-X1XwXwX[.@.} W @.u.C.n.",
"N.5 q _ ~ ~ >.R.J.N.&XS.uXuXg k @XD.y.~.f.2X@Xa.R.-X&XfXo.7 ..n.9.;.`.'.6X8.U :.8X/ D v.<.u.g i.#X-X@XG.@XK.F.uXi.i i } C.>.M.=X",
"i c L _ >.M.<.i.i.H.S.wX*XJ H D.<X$.Q.~.g.#Xf.p.R.R.8XfXE R o.#.O.5.`. XvXU w M.v.f ( +.S S D H.l.G.G.~.-X.XK.-XF F D ) u.>.F.[.",
"c 3.L ) wXA.D >.b.@X@XdX' 4 /./.!.d.!.Q.^.l.G.H.R.L.hX}.s Q o.o.1.8.8.A.`.w / qXN n { N.&X}.wX.XQ.Q.G.f.y.@X*XS.A J.-.] ] N.}.>.",
"M M._ N.=X} | t.S.G.kXq.l m.D.c.c.XXz.l.D.D.Q.*X9X&XfX4.d o.o.4.Z.9.A.eX_ 7 2.) N M.cX=X_.2X-XsX3X3XlX:Xy.*X*Xp  .[.~ ] >.S.=X-.",
":.2.=.].F.N.] t.S.*XQ.a g.W.g./.c.c.c.oXXXOX@X_.R.hX&X9 O...O.Y `.8. X`.> c A.v t.$X[.F.K.G.@X-XlXlXNXQ.' sXb.G b.J.A u.N.k.=X[ ",
"B.j.:.A.N.=XZ S.(.;Xl g.D.^.W.!.c.c.+X+XoX2X9X-X8XR.#.9 ..Y Y n.9.Z.|.N 0 :.A.i B.wX*X$X1X%X-X*X5XNXiXI #XuXF @.S.W @.>.[._.1XK ",
"3.:.J.N.=Xa.P G.lX&.I /.^./.d./.XX!.+XOXiX,X| F 7 + d Y 7.O.o.P.Z.`.Z.> N j.).v >.$X$X%X1X2XiX3XjXNXh.[ MXa.G L.u.{ J.@.[.dXF.v ",
"T 2.qX_.@XC G.%X!.I /.c.^.d.g.g.OX>XoXc.MXe., X : + ..4.o.o.P.V.Z.`.=.c M.[.MXi.C K.2X2XiX3XjXlXNX>XI *XdXA >.u.Q i.b.i.[.-XP F ",
"+.|.=X[.] e.,X:XI c.d.!.c.d./.c.^.<X#XuX~.9 8 f o.o.n.#.O.#.P.V. XA.N E J.aXaXp u f.#X:X2X,X5XjXNX$.w.sXu.` @.h } +.h R.-X| C a.",
"V.8X=X} ] -XXXw.&./.d.!./.!.d.W.#X#X(.nXg , W <.#.7.o.Y 7.V.#.P.yXm i >.=XwXA   Z q.w.f.XX>XlXnXz.J pX@Xz u.Y W n.( ( 8XR.W a.` ",
"J.}.N.G *X.Xr.J c.d.+Xc.!.!.d.W.XX.X-XK.8 g #.<.P.#.Q Y 7.P.5.6XZ.= D [.cXN.2 C | y.r.g.^.^.OX>XP l.2X-.E @.E T.n...T.R.| *.m.z ",
"L.wXC ] bXs.Z d.c.!.c.!.c./.;Xz.~.,XzXg u ..v.E.o.R O.7.4.P.E.A.m c N.|.9Xy , ' %.l.z.XX!.I l l s.sXt.C v.( @.E.....0XR.h H.W ! ",
"$X` ` pXl.l h.Q.c.OXc./.W.&.d./.L.0X*.3 Q *.U.o.R R O.0.{.|.}.T.b D T.aX3.6 a y.f.f.XXkX%.a *.L.R.>.D +.+.+.A.I.E v.rXi i.J.= u.",
"*.V ~.y.k f.g.Q.c.s.W.&.I d.&.*.(.*X! 9 *.U.O.R R O.*.U.E.T.}.9XE ~ qXcXK , F r.f.!.jXQ.H (.nX{ 7 r Q 6.~ 2.[.:.D 8XM L [.M c C.",
"p y.m.G I Q.W.g.OXs.$.+XlX<XlX&.*.! j h U.#.R Y o.0.U.'.E.[.}.&Xf M.aXB.2 a t.w.g.2XkXl r.dX*.p D +.v.) >.C.E.N C.T.t i.<.0 N.>.",
"H G.Z ' ~.f.!.z.c.$.!.+X/.uXlXzX*.3 u Q U.Y Y o.P.U.U.U.E.9X9X}.^ }.N.q 2 ] y.s.%X3Xf.' dXL.u +.<.E.X.f N.T.<.) J.m { / 0 D 2.N ",
"f.C J f.D.Q.!.W.$.d.;XD.*.(.*XMXgX3 Y @.+.Y 7.0.U.'.'.P.E.gX9Xb.i.@.q 1 P y.r.Q.kXG.Z -X@XW u.<.:.v.N :.6.T.~ M.E ~ >.& S M.D ~ ",
"H k f.G.m.Q.s.w.h.#X/.~.;X(.;XzX9X9 Q n.Y X.U.U.6X'.'.6XvXvXb.3 c 2 y K ] y.F..Xs.q.l.-XE W b.<.].E } C.].2.} ) c J.D 7 F.i.W ` ",
"a p.D.D.W.r.&.w.<Xs.lX/.m.;X(.VXh s @.4...V.U.6X0X7X6XfXvXR.h X < y ` -.| l..Xl.Z %.1X>.W C.<.{.v.e 6.M.A.:.2.L >.A.1 } b.E S i ",
"r.y.f.f.%.' g.;X;XD.*X(.~.0XgX0X9 ..E.b 7.U.`.eXeXeXfX0Xn.h 9 u ` -.] | G..Xl.%.k.uXt.p i.5.Z.0.f ( A.6X} 2.D / |.i.q v.@.` q 8 ",
"%.D.h.H D.~.G.z.XX,X~.@X*X,XsXv.7 #.7.o.T.6X|.vXvXqXM.c + o e >.-.| p.F.l.D.%XpXl.q.x >.+.I.,.- M 2. X3.=.1.L  X2.0 ^ >.F.2 2 e.",
"a.f.r.r.Q.Q..Xz.~.pXf.#X@X&XzXW e 7.6X..E.E.tXeX/ t o o = f ~ ( >.i.S.k.q.y.$XbXsXx } <.T.6.- O.) ).>.~ 2.L B.8.* q >.F.} 3 ` @.",
"#Xg.$.y.r.s.~.XXQ.,X-X$XdXmXH.+ / V.Y.V.8XcXA.c o o * r ( 5.6.<.N.p.i.r.q.l.%XpXuX] ] [.6.: / Y +.N._ A.;.2.B.> 5 ) N.=Xu z *.` ",
"r.%.r.#X:X~.s.#X-X#XsXdX9XW # Q / Z.A.qXqX].t X & c :.v.4.5.7.5.J.>.-.t.k.G.$XuXa.} F.B.w b 7.O.v.^ B.;.=.B.~ - ~ :.).>.a m.L.a.",
"%.r.~.lXMX<XI :XuXsXG.` 3 X 8 ) :.M.{.6XtXL & * ~ =.2.2.5.5.5.5.i.i.N.p.y._.2XpXA ^ [._ m V.1.V.:.<.j.~ ).3.; N =.j.[.8  .D.*Xa.",
"D.~.#X#XjX.X' pX%XH y , X 7 +.+.6.A.|.wXB.5 & L B.M.2.6.V.P.0.7.6.H.H.i.N.dXdX_.V -.j.L 2.9.`.T ..J.L |.].c > =.2.=X` p e.*XL.J ",
"' G.~.#XbXQ.$.s.3 , y O , <.v.+.:. XyXxX5 < x j.j.j.M.M.P.0.0.0.C.H.N.N.$XmX@XA ] | t.) 2.Z.1.T A.>.2.A._ & 2.2.j.A.1 @.D.uX*.*.",
"I ~.^.<X5XI V %   4 . = b.>.) v.A.`.yXj.& y B.j.B.j.8.Z.9.0.0.U.I.v.A.=XsXyXq.2 -.j.S :.A.8.r {.+.~ $XN.> =.3.2. XL n @.(.*.J iX"
};
