/* XPM */
static char *ba31b59e593e4906e5cbb73c479bf8e315XDvzZPKxhJOaPr[] = {
/* columns rows colors chars-per-pixel */
"64 64 88 1 ",
"  c #2E2B34",
". c #33333D",
"X c #38353E",
"o c #35383F",
"O c #373540",
"+ c #383642",
"@ c #3A3B43",
"# c #3E3F49",
"$ c #413742",
"% c #403E47",
"& c #423F49",
"* c #3E4149",
"= c #44434C",
"- c #48454E",
"; c #44484F",
": c #464651",
"> c #4B4651",
", c #464A52",
"< c #4C4C54",
"1 c #4D4E59",
"2 c #514D56",
"3 c #534F59",
"4 c #4C5056",
"5 c #4E525A",
"6 c #525157",
"7 c #53535C",
"8 c #59545E",
"9 c #55585F",
"0 c #5A585E",
"q c #555661",
"w c #5B5661",
"e c #555A62",
"r c #5C5B64",
"t c #5E5E69",
"y c #605661",
"u c #625C65",
"i c #635E69",
"p c #695E6A",
"a c #5D6166",
"s c #5E626A",
"d c #636166",
"f c #6A6166",
"g c #64636C",
"h c #69656D",
"j c #65696E",
"k c #6A696E",
"l c #726A6F",
"z c #666671",
"x c #6B6671",
"c c #666A72",
"v c #6C6B73",
"b c #6D6D79",
"n c #716772",
"m c #716C75",
"M c #736E79",
"N c #786E7A",
"B c #6E7176",
"V c #6E727B",
"C c #727176",
"Z c #74727C",
"A c #7A737D",
"S c #75787E",
"D c #7A797F",
"F c #6F7182",
"G c #757582",
"H c #7B7681",
"J c #767A84",
"K c #7B7A84",
"L c #767688",
"P c #7D7C89",
"I c #807681",
"U c #827B85",
"Y c #827E89",
"T c #887E89",
"R c #7D828C",
"E c #83828B",
"W c #89868E",
"Q c #848591",
"! c #8A8791",
"~ c #858995",
"^ c #8D8B94",
"/ c #8C8E9A",
"( c #918C96",
") c #8C909C",
"_ c #92919B",
"` c #98959E",
"' c #9595A1",
"] c #9C99A2",
/* pixels */
"hffji88ywhiiprL2>>322><86w92gaCvBBjkCSDDJDKDKSRagjvvxhhpMnZmNbKa",
"fhxxhy88iptiiiI332222>3r6q2<t0juaajjkCCSCbmkvBRgvvxxnMMnnhnvbZRf",
"dhkgue82qwwtzpG>3<<222689q6<r0kaadjkBlClhdftsgJdjkhknhhhpphxvxKa",
"kvkdtdurwriixxG373668we86665revgjBBBBBkkbvSMBvRjkxvbnhu8hhnxCBEg",
"kkdr0au9rriewtF3<>--<6622<66e9ZjjkvvjkkfxxZMMcLzjjhvvjuwdpkhvbKg",
"kjgdsde6qebsziz<>-#@%>362<9987BggfjkfjkkiihhzfGpjitafhxxruhhvCRg",
"BjjjBjaeqqFzbcz,32>->68e<-<699VraaudhllnnpxxvxLxvzrrgvNMiuxbCZEd",
"d94999551:1#*qq##=;=-<<<;@=>19v5880uhkhhnzxxxtbqdr9<7qw8>200rdj<",
"BBcBBvcccF,5vRstizxM6<<r99,;95js007dxpupppiziizwsSSBZZ2kNnvxmbmv",
"SCBZVVBvcRZtVJVZzjjZue7e099495ssadrduwwppxzbbbFtJVsavEhKMnvvbCCC",
"jdgjcgsdtbG9gtczvdef9erdraa9a4sstjddtiyitxzzzFLtBccjdSdSgdgghhjj",
"gafjjgdgzzbrbzMzxt7e<8ed9aa9s9sa9rr8ixiipnxpzbLzcjVVgZrvxhxvvxxh",
"kgjkmvvvMxizMMGMvvzMadrrraaaBaBs0as9ubzxiFFxzFFzRcjccKjZhvxhxhjj",
"ddfjxxhhziwwtw7wsdsj44,44444a5a445r<>9<i3wqtttFtcssssvemfutrtutu",
"khklMnnMzMx&i8wqr967=,,4,;,,9;9<94e411O-qq1qqqt1esjsee=cvgirtfgh",
"kfhkxhpppGI&UGYMDDDWSERSDRRJRBRDRjKK!Y71Lx3ttzFtsceedj<Zdt889ugh",
"hhklhddfmvm>jhhfvjdrrtadkerstettfeuriS8<rwqww78weee59aevadtruihk",
"klmmmlkmvnD8Clkdtidkvvbbjttfdfgrduhjuv6uw99w7328eese555Bgdfpudff",
"hdjxmxxkixL3vkka9euggjgghddddjxivztujg#99779733245e4<<5vcvvvMvnx",
"fdivCCxkinG3gvvgkvvxvkkkBvbgtjvjVvauZZ;6876976224;;;,53gdgzvvxgf",
"tqetvvzzpFF&tiFtraaggjjxjvZjerdarcvgmS<0667333225,*4497gzvbVMbzi",
"tttzvvbvpFF&Fiwq0tjvxvcvvVKSzdcjgvcsvJ68673<232&,4e545qZvcccvzge",
"FtzzFccbFFF1FzFqgvVVBBvvBcVSvgjvVjsaaV3973323883**e5417vGZVVFFbb",
"q111,1111:>.q1>>;***@@*;,@**@@;,,*;*o=O6w8838yy3e4e*,,*571,4qeqq",
"PLRR~RPPJLLYYYYYKJPg>BvggggatgggjBjcVa.9rwy888yy2>>>>:q_'//)/)~J",
"FFFLJLLJJbxFILLFZSEb0RPKBCZCZBvjcBsBRBo6e888833y3<-&&-3!LJJKLRRJ",
"cssFJKLGMMbMFpppjgZk6ZbmzvkjhvjscjscSC*78996222232>&:1qYZbGFVFLF",
"FccFLKGFFLLGFppFvkDv6hixxvgdhxxvjcBvZk=06222>22228w2qipKJMGFVFFF",
"LFVGJJGMUGnFMnnpNvIZ8xhMnbhhhvMmZbbvvj=t6<2<<<162006tzzLGbFJFLLF",
"LJSJLJZZMbxxxxFnMxAx3xphhhhpphhpDvdfgk=6<<<<<<67280<qttGGbFLLLLF",
"JJJRKGDHMnnxppFIANUN8Nhnnxhppppixteruh-8314<<<66499>7rtLLGLPLFLF",
"JFJKHGAGTGixFnnIAATAuDMhhpy33wyu08tduv4d6662<<<6<6w9tgiPGNLLFFLL",
"GGZKGKbKKZvxxMZDSDUDhSkh0u06666du9ubhb6i63223766e5q51iqYFFLLMbbL",
"HKHWUPNKGZMmNDHKDCSKmCuuhfy0yyyhuummfg-u2693226755qeqw&xIGMMULNL",
"NZAYKKDKZZZGLKPKDDWElCmDkj0yfhfhhtz06rXd68862338q5551r3HIHxnGKMb",
"EPGPKPRGHKKPYUPLSEWd<rddmkudlkhkvfbxKKX<83<2672>:,:*-w3LILFGHZZL",
"vsqreqe@1<1<<,1,26068JEvmmhkMmxmxrwrNZ @<-=-><>=@,,4<1&838313>>6",
"JJSJKVJ5ttsstssza7kjZZktlvhvNmxZKmurgm7NKPEUDDEEsLGJZbixMnxxNbzc",
"tstcbcJ,15555qqe9<kkmkkvkvjhMnxvhxivzguZwijdrrgmeVggriwzwwwixzti",
"tsssseRq11595455t6a6jZJZvvhxAZvMZKxDgrfvxhhhhhmZeFzzpzpb3ipxMzgx",
"ssstcbJ5,15qqqeq<qztrczxxZbMzxixDbmZi8dDjmxvMxmEeZvsjuipxpppiizi",
"scsscbR5**15eee59qzgzvxbbMxzgxzbhfxDKDmmxmhhmhgB9bjdhpphppyuiiig",
"tstesjJ1:,,15551q5rzvZbSGMxzzzgimZvZKZxCmZbmZCCP6Zkdxhhfpirwupzg",
"zcgscsG11:=:,,1,71esVPGGZMGbbxvxrzfgbidEfvZxhxZE0Zbvnhffpppipgxx",
"zzzggtb:<:&:>::::,51rVctttzzrgxiuxxDKiyUbmZmhhmS6Cvdfffufpuuuddg",
"iziigwb>3>>11-+O#:1#:e1=5313+1qw6<<wy-X<96888r0>=kjryy00pyfuufgf",
"xbbbbzPiGDALMztiGJRJJELGEYLQzQ!QWKKU!!!^^W(_(`](-kka00yyyyyudhjh",
"pxifzfYgtwwrw8wtrtvzcbvbzzwG7YYHHUUDDUEDAGWEmS^^<SDgu0uf680yidiu",
"uunihhPjkjhdfurigghxMGSvvgtvhJPKHIUIUUUUWINNANS!0jlBmk0860u00ddr",
"hxmhkjEBkkjgfuyuphhxNDbfnxdbkKDDUIIIHUUIDIZZAZK(dkljvgr00due0gkk",
"hhhpgkEbvvkvhpuyrufvZZZvvxvDZPHAUIIIIUIHUWTAZNDUjvjhkjtr0rdddsrt",
"nhxhgkPvkkvCMxpurtruhZmmgghZMUUAIIIIIHIUZUUZDUEWhvkkbMvxhjjxvddd",
"nxvxvzJgcvbZGAxddautdvxjpdpnxKIIIUUIANIUAIDmDIEUtzzizbxbxzztttgx",
"zizzbbRVVvbbSGMztagjvZmvvvhnhUTUUUIINMNATTHnNIZDgbvzxvbMxbbxxgit",
"xgzbZS~JFBzszZVzsggjcbvhvnxxpIUUIIINNNNAAAmnZUE!xGbxbbbGbGGFbbbz",
"cttrtrVsVce9tcvzcjse90w9hhupyNINTANNHUUHUUDZDIE(3qq,:11twrq:,rzb",
"vccccv9.:cSbsgrOsrcjst39phyy$fnNIIIINNnMhnnMZIDP+1qqrtzstitsqre+",
"JJKEEESvzKKGbGJjjsgsadrfrypNuAMITTINnnnnZDDGIADEsVGFJGVVLLJPLPPz",
"e4ekjrdgrjfdrsBar661486eu22pp(UATTTInxnMhnnNZMNWicczzssscsszszc1",
"s9dbhrdlxxjxggBse3768e69r6&&y(ThAIIINnnhhxnNAmD^zzzzczsBBbcbzcVq",
"r0djfffalk00rakd068ruu783ifrdEZnNAIAMnnxnMMADCSWtreeaasBgjajszB9",
"aajkkCCkClklvjCd6268wr8wwrizZPZTTIIANAHIMZmDUUUWzcjsjcBBcjgjscB5",
"aafkllDlfffCllB0r8yrrirhp6<wZKNTIINNNAIImAZDTWEE9jgaadsjBBjjsjv5",
"f0ddlllllldddjC0r8piut9uqer6dvgMnppphxxpphuynmj0<agaajjdjjsjdjB9"
};
