/* XPM */
static char *_aaaf6873090404afa22a632db71f466xAkBdwabNaTkvEh0[] = {
/* columns rows colors chars-per-pixel */
"64 64 78 1 ",
"  c #3F262A",
". c #46252C",
"X c #462A2E",
"o c #4B282F",
"O c #452D31",
"+ c #4C2D33",
"@ c #512E36",
"# c #572F38",
"$ c #473235",
"% c #4C3136",
"& c #473639",
"* c #4D3539",
"= c #4D393C",
"- c #513037",
"; c #53343A",
": c #5A353D",
"> c #54393E",
", c #59393F",
"< c #5C3740",
"1 c #553C41",
"2 c #5B3C42",
"3 c #603640",
"4 c #623D45",
"5 c #693D47",
"6 c #623F48",
"7 c #693F49",
"8 c #703E4A",
"9 c #564244",
"0 c #5C4146",
"q c #5E4449",
"w c #5D484B",
"e c #614047",
"r c #64444A",
"t c #6B454D",
"y c #65494E",
"u c #69484F",
"i c #71434E",
"p c #6F4750",
"a c #654D51",
"s c #6C4B52",
"d c #734651",
"f c #7B4553",
"g c #734B55",
"h c #7A4A56",
"j c #764F59",
"k c #7B4E59",
"l c #6D5156",
"z c #6E5359",
"x c #715057",
"c c #75535A",
"v c #7B535C",
"b c #75595E",
"n c #7B585F",
"m c #7F5760",
"M c #7D5A62",
"N c #834E5B",
"B c #82525E",
"V c #89505F",
"C c #845661",
"Z c #8B5563",
"A c #835A63",
"S c #8B5A66",
"D c #875F68",
"F c #8C5E69",
"G c #915666",
"H c #935B69",
"J c #995C6C",
"K c #836067",
"L c #846269",
"P c #8D626C",
"I c #92626E",
"U c #8E6971",
"Y c #946571",
"T c #9A6573",
"R c #946A74",
"E c #9A6874",
"W c #967179",
"Q c #9A767E",
/* pixels */
"hdvs%>sssgdtdgirp:-,rlp4ddddggr::ivcgpe-35igNhff444sdidfhfghhfgh",
"kgms->lljjdidggds2;,ryt:4hNddxr+:tcncge;,rgkNggg54rtiighffdhNfff",
"hkCl-;uxjjkhhkjgp,>,wsy2#gBdpny+@2sbbs2;>elccNgg4,stis4NNhBNBBBg",
"hkBs;;uvjkkNBkjhc2=9ylu;@pvgucy;+;rclw=+>,rllccce,csuh,dBBcBnBhB",
"CCvs:;tcjkkkhkkjc0>9wlr-@5ccgy9=**=0w=$*==%,rsay,>clsx,iBcBcxxch",
"Bkd4;-,rBkBBkjknr%O=wae*;,pcs9$$0=$$$$*9==$$>99>%+ryey:4cnnnAAKB",
"t5:@;%@:dsjBvgtu=XO&=99=;;2r0%$=w9;$*=999===%=%%$$%>>%-;usxBAAcl",
":;++>>%;@:invr-o%$=&&&*%,;@++O=w9099009>,09>%$%%,>X+oX%%X;0uysu9",
">%%==w9*--#2,-+$*>>9O==*2;,2>$&9erureuttrure>%%>0,>>>>,9,++;%o;2",
",%%=199=,---;+$=>,19&=>>2,201&&9ugcxgssssssr2;;,we9e0ewe9%%,;%:,",
"9;&==ww9e,--%$=99e0w*192222e2$&0sxBBhcchccxu4;>,eeeerurwe>;e,:,,",
"0=&==9arr0,e2119eury*122444e2*&2dBBBBhNdNkht2>,,eree4yuye;,rye44",
"r>%==waytrtrrewwuxuu;024e35r2%%1gBSBBNBchBkr0;,,dsteuyuye@,tuutt",
"y,%%>ysugdtturyyxjgg,eert45t6**2sNSSBBBNCCkt,,,0ghditsgu4%:ugggg",
"g,-;2uxghhfdiuusgjgg:tttitti6#12dNCCNNBBADAu,,>,shhsshxse@:txhBh",
"g2-;egcdghhhjglusguu:rtuitud6<*2gBSCBBCCDFCt,>>;dhBhxnBge#:scnAB",
"le%;6sjkjNjjfdjj66zz&6j6s6pu61*2sCHSCZSCSSBt:;>>dBBhcAnle>>tBAAB",
"cw%-6sjmjjjjjjj6z6z6&&6jgzl6<1115hBCZSSCSg:+;2>%iNCchxnce:@0sAnA",
"b0*%2usjjjjpjjjpzz66@&666z61O22<:5igBACht4@X%>>>dBCAAABx,;o:unnA",
"a9*%<26pzjjp6jjj66&&66<&<1<<+262:24eugue@;;>>>>>hcBAKKl4>%o;,ycn",
"11O111<<jjjjjMj<<&.&6p<&<<+<6666e,,>0e2%-;>>rw9XusBKnl0@;;@@;,us",
"&$11++1<66zzza<+O<&<pa66<<<<u6agy9,,,>;@->09909:;ehxe:;#:,:;@#::",
"1&11<O1<@6666&&&*<<&66pj666sstuzyye02;%@%9yy,>0r#4e4:%#2eeee2,:%",
"&111111.<&<&&&&161*1pzj6gpggsupzcxly0>%%;20erre20,>@;,ettttttt4;",
"1111&<1<&**+&&&161&16zjzgppdjpggcgcls;;-%rtete47e%%+2sttt7sstsu,",
"1111<1<&<&*&&&*<61&<ujppgppjjdgjBhBxg>;-#et5ti57r;;;egdtdtdddgs,",
"1111<111<&<&&&&161*<zjjjjppdgdjjBhBgh:;#@et5id88r=>;eBiigiddsgs2",
"116111661<<&&&&&1<&<sjjjjddjjdfkBhBxx:;--eti8if8r%%;egfhhffdigd3",
"16666111<11&&&&161&#pjjvjdkkhffkCNBhh2;-@egt5ifty=%>eBdhhffdigt3",
"1666116111911&&1w6<&6jvjkjkkjjkkZhBhh2>-%0bs5ihis>%:ehihffffihd3",
"11666666666&&&&&161<ujjjkkmkkfkmSNBcc2,%%9xlshN4y%=2iNfffffffhd3",
"<6a6666666611&&&&11*6bmBvkmVkkkZHCCvB49>%9lbsBg:9X%2fNfNffhhhhs2",
"94tsueereru,@;>XO%O;unnncBBBNBZSZCSPPs:-%-wKKl2-%>-,gkhfffhhcr-%",
"@>rxcsr0sy4-o:e,%=%%egcmvnVVNNVZVIYA8;@2%%2sl0>->>--5hhNhhhu0%O9",
"o@,ycbllxe>%%2yy>9;-2uxmBvNkkVCZFPB4#--,-%>>>>>,00,+,tgvhht,%X$w",
"9-%>0lbK0>-;;eslyy0:,2tnmmvvmASSDh,@;,29>>%%%;2yls2+#4txsr-o>99a",
"y9>%-9yl-%;>;9slsxu4::4dnnmAmmmne,->>%>la0>;,euxlle-;,0e,-XX>yal",
"lsye>%o;->0>%>scxcg8e##,5ugnns82%%%9>O>bble4rtgsgxr:;>%>X%%%9rlb",
"cxgsr,--0ts9o2lckkggg4---,er0:%+>%%>9>9xAlxidghghBu:,2>-O>;-,4sA",
"nxxgsttttxx4-2xgkBBmnr#oo%;;;%-;%99,>,rcABvhhhNkCAg42e0>99>%,rsA",
"mhhvkghcgAm4@4gxcZChPr--;;>=;%;=>>99,-eBBBCCNNVSZSv5,eaylr2-:5hC",
"BvhvmBBmAKv4#3ivhCFKPeo>O;>9>;>,>%9r4,iKAvNCNNNGSIC53uxyxy,-:thN",
"NBBBVCAmSh5##:8v8BIPUe%;O=999>,2>>24,#3hPSHSZZHTEEC3#txscy:#4gnC",
"CSCBnCCBi3@@@#ev4vUPKr=%%%>>9,,9>>>,-@@:CSFSSHIISni#@2ugu2--4uhn",
"hmCmmAvd,@o#;@,u#mQKx2=O==%;,40,-%%>>,##tAYPPUDc8,@-;,rl;%o;:0ey",
"4tgnngt,@@#9,%@>@nQn2X=%>=%=,044%%%%,02-#gKKKKx2-%%22>-9%%%>>->>",
"#:4ty2-o%>2099=%#unw% ==>>=;;>,,====902;o;4r42;O=;920>%X-%=99=$=",
",;;,>%o%-2wyysy>4#>%%X=$9>2>@oo%==990rre;--;-O%>-9092y9%=%=99===",
";;%%=%%>0ndgkxnst3#@X%%$9ee22>;>>99eerrur5,>;%%0ytt0ee9;;%-eye2,",
"29;==%%0gKBBmBmkkdy0;%==9we90,;>9ewyyuitttt42;>rtitrre2;=%;ryu55",
"yee99%;tCICBHSSmBccu>%=%0yre4,;>wyyuttdgdgtuw>>wiiiitt9>%%;estyu",
"tssye->iSHZVSSSSBnvu>%%%4utuy2;9asslgggxggtsu>;esdsiut0>>%%0ssst",
"sxxxy;:iZGGVGGGIFAnu>=;%rsgds0;2llgggghhkkkxs9;wifdsst02,%%,uxxs",
"kxxlt::dSVGGHGVEIPnt>;;%ydgkg4:0sgxggghkcccnl2;esddisut0,%%>rlcc",
"xxuse;#uHZHHJHNIIUKl;-#@tgnnce:0ggckkkkcchgnl2%0hfdddsur;;;%;9lc",
"xste9%@5FZHGJHfZIEUc>;:>tgvBcr:4dhkcvvkkvcgnx2;4ghdsdxsy%>,%o%0x",
"s099=%;@4BESIS4AEUne;;>:8nkhmt-rgnhknddmcknAs;@>ghghdssl;,0,-o-9",
">%%=;>>;:3kCPk4WUn2@%20::hmKKu-2dmmkhghcmmns0;%-egvdscns->20>@@,",
"%o%>=99>#o:tnt@Ks2%%9ye:#8nCg4;;rmFmdmKkmnl,%#;-@8cccns2@;242:--",
";;>9=9099#@o4wo9%@%>eyuu:,id,;,,:unctnKssu,-->>:o#esde:#;,4ut2,;",
"e0w9%>9994:o;e>>>-;>9esx5334#>w9-:4r,rs,,;#,4022>@o-@@-,eeusgu44",
"tt59%;we344:;;>w9>;>0ywese54,eu0e:>;#-#@-#2uster:2>@o,resutggstu",
"dsu4%>ytrtee9%9y9,%9yye2gtirruy2wue2,>%;-2ulssuu>0weeusrddggggdg",
"hgd4@9tuuue4eey9w>>>9wylcddtuyw9;slusw>;%yxuusxse22yyersgsgchggg"
};
