/* XPM */
static char *_f19a988530f434bff4493dcbb1e969aCAhsodnqzYuu4r7F[] = {
/* columns rows colors chars-per-pixel */
"64 64 199 2 ",
"   c #0E1317",
".  c #0F1418",
"X  c #141E16",
"o  c #11151C",
"O  c #151B1E",
"+  c #1A1C1D",
"@  c #12211E",
"#  c #1B221E",
"$  c #20211B",
"%  c #0D1627",
"&  c #121522",
"*  c #151B23",
"=  c #1A1E24",
"-  c #161D2A",
";  c #1A1E2A",
":  c #161831",
">  c #1B1F30",
",  c #172225",
"<  c #1C2225",
"1  c #1F2824",
"2  c #1D232B",
"3  c #1F292C",
"4  c #1D2533",
"5  c #1F2A34",
"6  c #1E253A",
"7  c #1F2C3B",
"8  c #212425",
"9  c #242A25",
"0  c #282A27",
"q  c #22252C",
"w  c #242A2D",
"e  c #292C2C",
"r  c #263027",
"t  c #27312D",
"y  c #2B332C",
"u  c #30342D",
"i  c #303A2F",
"p  c #222632",
"a  c #252B33",
"s  c #2A2D34",
"d  c #222639",
"f  c #252B3A",
"g  c #2A2E3A",
"h  c #302F34",
"j  c #263133",
"k  c #2C3235",
"l  c #2C3B36",
"z  c #27313B",
"x  c #2D333B",
"c  c #2E393D",
"v  c #313534",
"b  c #343A36",
"n  c #31353C",
"m  c #33393D",
"M  c #393A3D",
"N  c #33403D",
"B  c #3B413F",
"V  c #41433E",
"C  c #242C41",
"Z  c #292D42",
"A  c #292C4A",
"S  c #263142",
"D  c #2D3443",
"F  c #2E3944",
"G  c #273249",
"H  c #2C354B",
"J  c #2D3A4B",
"K  c #323642",
"L  c #343A43",
"P  c #393D44",
"I  c #32364A",
"U  c #39374C",
"Y  c #343C4B",
"T  c #3A3D4A",
"R  c #2D3A51",
"E  c #353C52",
"W  c #3A3C53",
"Q  c #353C5A",
"!  c #3A3D5C",
"~  c #2F4047",
"^  c #354144",
"/  c #3C4145",
"(  c #354846",
")  c #36414D",
"_  c #3C424B",
"`  c #3E494B",
"'  c #364153",
"]  c #3C4353",
"[  c #3E4952",
"{  c #36425C",
"}  c #3D445B",
"|  c #3E4A5F",
" . c #384162",
".. c #3F4D68",
"X. c #424546",
"o. c #474946",
"O. c #41454D",
"+. c #44494E",
"@. c #484C4F",
"#. c #424552",
"$. c #444A54",
"%. c #494C54",
"&. c #42465A",
"*. c #444B5B",
"=. c #4A4E5B",
"-. c #4B5155",
";. c #46505B",
":. c #4C525C",
">. c #4D5A5C",
",. c #51555D",
"<. c #535A5D",
"1. c #404461",
"2. c #404763",
"3. c #434A64",
"4. c #454C63",
"5. c #484A61",
"6. c #494D62",
"7. c #414C6E",
"8. c #494C6D",
"9. c #494E6B",
"0. c #465263",
"q. c #4D5364",
"w. c #4F5863",
"e. c #45526D",
"r. c #4F5669",
"t. c #4D566B",
"y. c #4C586D",
"u. c #515562",
"i. c #565A66",
"p. c #545A64",
"a. c #5A5F63",
"s. c #595D65",
"d. c #50566E",
"f. c #52556C",
"g. c #535A6B",
"h. c #595E6A",
"j. c #4C5274",
"k. c #4B5571",
"l. c #4D5A75",
"z. c #4D567B",
"x. c #515672",
"c. c #525870",
"v. c #545C73",
"b. c #575D77",
"n. c #545C73",
"m. c #595F75",
"M. c #5A5E72",
"N. c #52577D",
"B. c #54587B",
"V. c #545C7A",
"C. c #5A5E7C",
"Z. c #576764",
"A. c #5A6662",
"S. c #5E6A66",
"D. c #5C6069",
"F. c #5C616C",
"G. c #5D6B6E",
"H. c #576174",
"J. c #5A6076",
"K. c #5C6374",
"L. c #5F6975",
"P. c #56617B",
"I. c #5C647B",
"U. c #5E6979",
"Y. c #616477",
"T. c #626574",
"R. c #626975",
"E. c #626479",
"W. c #62677B",
"Q. c #636B7D",
"!. c #6A6D7E",
"~. c #657074",
"^. c #6B717E",
"/. c #565F80",
"(. c #585A80",
"). c #585F89",
"_. c #556184",
"`. c #5D6481",
"'. c #5A6583",
"]. c #5D6A85",
"[. c #5C658A",
"{. c #5F698B",
"}. c #606680",
"|. c #656684",
" X c #636685",
".X c #646987",
"XX c #636C84",
"oX c #676D8F",
"OX c #626C8A",
"+X c #686B8C",
"@X c #6E6F8E",
"#X c #6A6E8B",
"$X c #6B7283",
"%X c #717B87",
"&X c #666B91",
"*X c #626A92",
"=X c #686E90",
"-X c #6D7298",
";X c #757694",
/* pixels */
"n g & ; p ; s / %.a.X.8 x m e j ~ ( >.Z.Z.S.<.c l x 4 4 Q 9.N.`.L.:.[ :.w.` a 2 e e 8 8 8 $ $ 8 h ; g %._ ; q T n q 8 g T M h s ",
"p s ; ; p s P O.k n n n s q w n z ~ ` ( c m ^ m O p f f W t.b.c.' D j x ) ` ^ x < w e < $ 0 e 0 q p Z %.=.U h g K p ; h M n a = ",
"s 2 O w h g K a g g T #.g p D I A G C f D D j a s k w k ` >.) z 5 H ) I z z f a p n M s 8 M o.v h K g p n K s w p q 8 q h n e = ",
"s < e %._ a g g $.=.W Z d W 5.1.z...Q  .c.*.f 2 j 1 , x ` N t j F E } | *.&.Y x g p h a 8 M X.8 n ,.,.U T n p f X.#.#.X.n h p 8 ",
"O q / A.O.p #.i.E.E.U : W |.=X+X&X-X&X.X}.*.d p 3 j l m t @ , ^ ] 3.t.m.m.f.=.:.g p s s 2 q h = #.D.i.$.O.n s P P %.,.+.M n e q ",
"X e n M x n $.=.h.f.U A C.;X|.|.x.C.b.t.*.U g s 3 L ` x 5 5 z ' E ! 9.m.W.v.6.] n p n K q = q q O.#.T h g q w P w k k n n n e ; ",
"w k < = w s n f K Z d K 5.5.! U I x x g g K K d * f K I *.n.l.k.3.R C E H.W.=.f s p q a q = = 8 h s n P M s q s P m n n m x w = ",
"s m j s a ; ; s n d d d > d I g m k v v e n M ; ; Z Q 9.'.{._._.C.C.q.D 4 a D K T d = ; h h p w n s n K a 8 f n m n m n n s w q ",
"n P %.$.n 2 ; a s q q k k < + e r y y y y 9 < q K =.c.B.N.).*X*Xm.q.W F f a x L k k * = n P n h 3 w D P f 2 a x x a a x x f p a ",
",.u.=.O.x q < < a q q y k y e y r 9 # # # + q K =.f.I..X=X*Xz. .C K Y a 2 w j k k e < e / @.P T 4 p s z a 2 , 2 2 3 4 5 3 2 j K ",
"u.u.=.K p w 8 ; 0 9 e v b i 9 # < , 2 w k q w n #.q.K.I.c.3.R C 4 a s a j j e e b < q m _ #.#.T K F a - , - ; a d a f a f K Y Y ",
"L T O.K f 8 8 w e e e k y r # # < a x ) +.T d 2 q K $.#.D a f c D p 3 k k , , s b q k _ #.$.6.=.$.O.z - * 2 f Y &.$.] =.p.h.*.f ",
"g s n T l q q x P b v s 0 # 8 l Y [ &.] =.5.K 8 p q p h v k k k a 2 8 a w O = 8 2 2 K &.&.*.x.f.p.$.D a z I K K 0.h.K.K.L.K.] f ",
"n a a n k q 2 s +.$.+._ k w a x q.g.w.*.i.h.U p q q q h m k y w s a p s P O.l + 2 j ] q.6.9.x.f.I.) f D ) &.[ F Y w.Q.J.*.E I F ",
"v s e g s 2 q g T :.u.$.I Z K D ) [ #.*.,.=.U q 8 8 p v e 1 1 s L _ _ +.,.a.P & a T 4.6.x.B.(.(.J.D 5 Y &.w.c.&.f E 5.&.Y H H E ",
"q s L b a p g L g =.=.Z d W 3.} C 7 a K T n p p p 8 8 8 = O q K L %.h.h.$.n a 8 * D Y U 3.b.C.|.} - z p.g.F.Q.w.F Z C I ] &.] U ",
"k n c x * 2 c a 5 3 D % 6 l.z._./.7.{ J 7 p a s 8 M M q 8 K K c f p K _ s e k 8 < 8 g K U U W &.K 4 Y K.L.F.F.;.z f n =.u.$.T n ",
"3 < * p z a c z 3 ^ D 4 R k.z.[._.[.P...Y f q 8 8 e h h d L ) [ 0.) 5 2 n L y < + < q h T _ T U f c :.F.$.Y K a n s s n L k h n ",
"= 2 * k _ Y F a K >.2 4 y.P.{.{.'.].G.| K h a < < < s s K #.5.c.K.g.D & a s 8 q w 8 q e v K K K 2 f ) ) z a x a x s p q w p a s ",
"+ l p 2 x F j , c ( * c H.J.XXP.l.0.' c g n s 8 = 2 K U W 5.9.V.E.M.W d 4 * < k n v v h w q p g a 3 a x a c I x a 8 ; 2 s h w = ",
"_ $.g q K _ $./ < < j ` $.} 9.6.[ ^ c m m k q 8 a K $.&.3.x.z._.+X9.U U f 4 k k P / P k s 2 3 2 f 5 a c f w 2 < q q q q w s w 8 ",
"<.%.K #.F.F.T.F.c @ k L f F I U Y c m M n 8 8 s s T 6.q.x.].{.{.I.W I I 4 p Y Y O.O./ _ ^ Y z 3 , 2 a p 2 * 3 x l n n e ; 8 s M ",
"_ s p #.u.*.%.+._ 8 8 q a K Z Z m m m k 8 = e / s K q.v.C.P.z.N.! T K d 2 5 ^ ` [ [ ;.;.0.;.] J 5 w < * 3 n / $.T M n a < = a b ",
"p ; ; p ; ; s < e e < q n x g g c c k q 8 e P +.l K w.W.I.7.R J Z #.K ; p F ^ $.;.w.D.w.q.w.y.w.;.^ 3 2 _ Z.-.l m s w e w 8 ; = ",
"M g ; ; d d p ; 8 8 q w n n I Z g 4 2 p = n s w a K i.L.[ J ' J q m k < 2 l _ $.w.p.H.K.H.P.P.b.u.+.2 n O.s L n m x j 2 x _ a * ",
"#.g ; d d ; q w 2 < < < w s q ; : 4 Z g - p a n m l P ) F F J z m v 8 < 3 j ^ :.w.r.g.y.k.n.V.x.u.+.q P -.O.X.n x s w * c _ x s ",
":.f d U H 6 2 5 ; a k q O ; g K U H D > D $.=.-._ c j k c c c j 8 8 e b a < x p.p.f.f.3.1.} Q I Y v = x +.K K n K a a w x f 3 c ",
":.p D q.q.W f - Y +.X.w + f #.f.I.x.W d 0.R.F.>.m L j w j a 3 e j 1 1 m +.a 2 c T ] T U I E I D x s o q T n L K K 3 5 F Y D , f ",
"[ 3 Y g.U.K.E 2 Y m a w x ;.M.T.W.E.c.Y *.q.` K m m e , * @ ; w P g a L _ s * ; n n g h g n h g s a o 2 g n g g f * p $.R.w.f 4 ",
"] 5 ~ y.U.$X} 5 * < , a ) :.u.q.3.5.*.z D ) F c Y j , o = s P +.$.K p d I x 2 ; K h d q q w q < ; a d h q - ; a 3 p &.K.^.w.S f ",
"( 5 ) 0.P.U.E F 4 5 j F K x F I Y S f 5 3 ) Y Y c , * 2 w _ ,.=.4.D : Z q.q.g . ; q 0 e h v h 0 h O.=.#.I g g I D T w.f.q.E f H ",
"J 7 ' 0.H.r.S Y D a 3 k K Y Y T K c K Y 3 D x c p * 2 g k P +.K d W h.!.Y.] a p 8 e M X.o.V u < $.5.$.$.u.g.] T u.*.] D K K f D ",
"e.y...' ) ) K n m q e k v s s s 2 w s w 4 2 ; 4 g T _ g L v e q g ] u.i.O.g s n < k M +.%.n q L c.P.P.P.P.U.g.&.Y c D Y K p Z =.",
"l._.H.0.Y a n ^ b 8 # 8 < = < < w e s p ; ; g K #.i.i.n n j m k s T O.P x x n v & k +.,.-.n f W { 7.k.l.P.P.q.) z c x K x 8 g $.",
"..e.0.e.Y - w k 9 = + 8 w n T O.^ v w q q f U #.=.h.,.2 = < e 2 q g I n P P k = w m +.$.n q a T G H R E ' [ ) F 5 f x a q q g K ",
"R R G q.[ 2 2 , q < = < = s K M P y 8 a L O.=.u.g.u._ * = < e 8 q a s K P m q . e s m m q - p x J J J F F ^ ) L a a a 3 p n T K ",
"G J | ~.p.a 5 < 9 e s w ; q a w + < s _ ,.i.s.h.=.T K w w < k k n a p s s q 2 w = = w s a a s p F Y ) ^ ^ ^ m c z a 5 3 x $.w.) ",
"S ' U.%X;.5 2 a s L O.#._ $.$.K O k %.A.i.=.%.$.T g K g w = v _ O.L K P m w s ^ k w q q s g g p x x x l k c c c c 3 2 a c &.p.:.",
") S g.>.K j ; 3 x P $.=.=.i.&.s e O.<.,.O.L n n T n O.n s < P @.$.=.,.i.+.k s / +.X.a = p a q p k k j a s k m _ j , 5 D z ) r.w.",
">.3 F z z [ a ; 4 g L O.u.i.%.2 m / O.m n K T K K g I s 2 q M P %.,.s.u.P w 8 s P O.h = a p - 2 < < 8 w 3 2 a j a - D ' D J q.K.",
"^ j k L c z x a [ F * z q.=.Y p s m x n L n I L x a ; w a a a s n #.,.L w w q a k k 8 q O.=.=.,.@.,.@.h g g f p 4 f D } 3.H H r.",
"w z L L L ( F - *.:.D p n g s a s m v n L n g s p q g K s ; 9 / n > q q s x < < < w 2 2 P ,.u.,.,.,.K q K ,.w.&.C 6 Z e.XXt.J J ",
"w k ^ ^ L z 5 f ;.L.[ 4 2 p g K k K M n n d q a p P T a 8 x $.,.=.p - p n x O = q a 8 ; s K K n P P s d $.$X!.u.&.D C &.Q.v.E D ",
"k N ^ m a % a 0.K.$X*.5 f f s s q l L x w 2 p P %.,.P ; < +.i.,.T q ; q w < O s w q < < p g n K n n p = I i.Y.T.d.Y d H ] W I J ",
"e / P 2 * 5 ' U.XX%X;.x a 2 8 q q p s 8 ; 8 s %.a._ a s M _ T L g q q ; ; w e P k < = w a p s D h g p q D T *.=.] D f D F x x D ",
"8 e q 3 a D *.L.w.g.] F a 2 k / n q q ; e n w K T h q e n K n h g p 8 ; k $.%.@./ q 2 k a ; ; - ; ; 2 d P U I U I a p n K L m c ",
"e < e _ K f H 4.Y ' ) Y a a +.-.Y q a s _ +.2 < w h a < p K P g q q p ; x :.,.-.n 8 a m _ +.T s a s a q a h K T L w a n m B B l ",
"a m :.:.D a z f D I _ ) 5 a +.^ s * K _ u.i.p q p a s s s s p q Y *.u.L p k n n q ; p L $.i.u.D g #.%.P s p f g K 8 w v v v v # ",
"+.%.O.n g h g n h n U M e = 2 a z z ` q.w.g.#.& ; h q + q h g #.p.q.h.0.4 D d > Y K d D t.I.k.0.g u.K.i.w.$.D p ; < q p q q 0 M ",
"L Y K K M s = q h q q g a 2 ; p [ ~ ' y.I.$XM.I & & 8 8 q M %.=.w.y.| 7 D i.T p *.&.H C | H.H.H.H D :.F.D.R.h.g q = = q q p n o.",
"#._ K n n a = < q p q 8 g _ P f z 7 7 S } u.*.K h + h X.s O.s.q.g.y.Y f t.i.K n T ) z 2 5 Y ) ) f 2 z L K _ T 2 q * = q g h h X.",
"_ L f ; < < 8 2 e h M P %.:.] a 7 G H G I H D g h = M %.h K u.i.K.0.H f h.] p g q n c a 3 a j a D T f 2 x a ; a ; 8 s K M h h h ",
"s a 5 j x a s m +.x L u.i.F 4 C | y.l.y.3.E D x h q v O.m f &.XXg.Y 4 - T K s = < 8 j k e 1 3 j a K 3 2 L n < q < v P T K K n e ",
"5 3 c :.u.l w L i.U l Y Y f S 4.P.P.P.U.t.] c 3 n h y m m 4 Z t.F 6 6 z h < w < e # 8 9 + X # , w w w 2 * & = * s L M h h h h s ",
"3 3 z ` O.a < p _ T f - 4 ] h.I.]._.].].q.E D 3 e 9 # < a 4 6 d p g g _ p + q M M 0 9 e 9 a s 8 c / ` s . . < s n v h h p w w q ",
"c ~ l , w x k s ; 8 4 5 Y y.U.I.'.I.OXXX} S z t 8 @ X < F *. .7 ] D.T w & h X./ s q a n I $.#.s q @.m # e < . s a < q v M h q w ",
"( >.` 2 e / n 2 2 T =.p.' *.y.XXOX'.P.4.H F L t # # t ^ =.K.I.t.) +.m , w 8 s q p 8 K &.5.M.f.6.s < e q = q + ; q v O.n = ; k L ",
"L.>.c 3 k m s 8 O.,.s.q.D Y ] ] | | ..] H F K e # # / <.w.I.XXd.x * O s n ; w s M d U f.f.C.C.M.%.9 8 e 9 8 < h = a s g n L O.:.",
"~.` j k k w q w m $.+.x , z D z D S E Y F D g ; 1 @ / Z.;.g.P.{ x 5 k m h > T %.5.d d Z A ! 8.x.x = = + q m M n = s q ; l I +.T.",
"` x x l 3 < q h q e a 2 % a ^ J F F ) Y K D a O ^ e t L Y ] } C 4 a ` ;.K g %.#.u.g Z E U Q A Z w 0 0 < 8 m M q 8 ; ; ; f z K =.",
"a a l s = 8 h 0 v s k e 3 2 n K c c F D K n p ; @./ 9 2 z Y H Y ] f 5 ] L I ,.i.i.] u.W.J.q.J f a + + 8 8 2 a h n f T w.=.*.] g ",
"j x s < = e h < v 0 e q 2 * 3 w w y e 3 p p 8 q / / w = a Z I t.XX0.f a ; K h.^.:.T =.u.[ ( ' -.P M u h h v ,.i.T L h.!.*.W } f ",
"m c q < q e 0 $ 8 + 8 8 t w k 3 $ y e p n h p n K h q q f D ] n.l.H.| E 6 g T #.g 2 m ^ k l c ^ M V s q = < P K x n *.*.d d Z d ",
"x k < q h 8 + 0 0 8 v y / X.` y 9 u M V %.=.%.u.T s w g l ] r.H.I.y.E v.0.z ; a l , l l l c c s b h 0 M v < g K g p 4 f I ] H 6 "
};
